<svg xmlns="http://www.w3.org/2000/svg">

  <symbol id="theme-icon" >
    <path d="M6.993 12c0 2.761 2.246 5.007 5.007 5.007s5.007-2.246 5.007-5.007S14.761 6.993 12 6.993 6.993 9.239 6.993 12zM12 8.993c1.658 0 3.007 1.349 3.007 3.007S13.658 15.007 12 15.007 8.993 13.658 8.993 12 10.342 8.993 12 8.993zM10.998 19h2v3h-2zm0-17h2v3h-2zm-9 9h3v2h-3zm17 0h3v2h-3zM4.219 18.363l2.12-2.122 1.415 1.414-2.12 2.122zM16.24 6.344l2.122-2.122 1.414 1.414-2.122 2.122zM6.342 7.759 4.22 5.637l1.415-1.414 2.12 2.122zm13.434 10.605-1.414 1.414-2.122-2.122 1.414-1.414z"/>
  </symbol>

  <symbol id="trash-icon">
    <path d="M6 7H5v13a2 2 0 0 0 2 2h10a2 2 0 0 0 2-2V7H6zm4 12H8v-9h2v9zm6 0h-2v-9h2v9zm.618-15L15 2H9L7.382 4H3v2h18V4z"/>
  </symbol>

  <symbol id="plus-icon">
    <path d="M13 7h-2v4H7v2h4v4h2v-4h4v-2h-4z"></path><path d="M12 2C6.486 2 2 6.486 2 12s4.486 10 10 10 10-4.486 10-10S17.514 2 12 2zm0 18c-4.411 0-8-3.589-8-8s3.589-8 8-8 8 3.589 8 8-3.589 8-8 8z">
    </path>
  </symbol>
  
  <symbol id="cross-icon"><path d="m16.192 6.344-4.243 4.242-4.242-4.242-1.414 1.414L10.535 12l-4.242 4.242 1.414 1.414 4.242-4.242 4.243 4.242 1.414-1.414L13.364 12l4.242-4.242z">
  </path>
  </symbol>

  <svg id="add-user-icon">
    <path d="M19 8h-2v3h-3v2h3v3h2v-3h3v-2h-3zM4 8a3.91 3.91 0 0 0 4 4 3.91 3.91 0 0 0 4-4 3.91 3.91 0 0 0-4-4 3.91 3.91 0 0 0-4 4zm6 0a1.91 1.91 0 0 1-2 2 1.91 1.91 0 0 1-2-2 1.91 1.91 0 0 1 2-2 1.91 1.91 0 0 1 2 2zM4 18a3 3 0 0 1 3-3h2a3 3 0 0 1 3 3v1h2v-1a5 5 0 0 0-5-5H7a5 5 0 0 0-5 5v1h2z">
    </path>
  </svg>

</svg>
